# Blender 3.6.0
# www.blender.org
o Cube
v 0.026244 -0.451950 0.055382
v -0.075603 -0.104194 0.437541
v -0.313605 -0.203632 -0.261152
v -0.415452 0.144124 0.121007
v 0.415452 -0.144124 -0.121007
v 0.313605 0.203632 0.261152
v 0.075603 0.104194 -0.437541
v -0.026244 0.451950 -0.055382
vn -0.7390 -0.5845 0.3349
vn -0.6453 0.4715 -0.6010
vn 0.7390 0.5845 -0.3349
vn 0.6453 -0.4715 0.6010
vn 0.1934 -0.6603 -0.7257
vn -0.1934 0.6603 0.7257
vt 0.625000 0.000000
vt 0.375000 0.250000
vt 0.375000 0.000000
vt 0.625000 0.250000
vt 0.375000 0.500000
vt 0.625000 0.500000
vt 0.375000 0.750000
vt 0.625000 0.750000
vt 0.375000 1.000000
vt 0.125000 0.750000
vt 0.125000 0.500000
vt 0.875000 0.500000
vt 0.625000 1.000000
vt 0.875000 0.750000
s 0
f 2/1/1 3/2/1 1/3/1
f 4/4/2 7/5/2 3/2/2
f 8/6/3 5/7/3 7/5/3
f 6/8/4 1/9/4 5/7/4
f 7/5/5 1/10/5 3/11/5
f 4/12/6 6/8/6 8/6/6
f 2/1/1 4/4/1 3/2/1
f 4/4/2 8/6/2 7/5/2
f 8/6/3 6/8/3 5/7/3
f 6/8/4 2/13/4 1/9/4
f 7/5/5 5/7/5 1/10/5
f 4/12/6 2/14/6 6/8/6
